<?xml version="1.0" encoding="UTF-8" standalone="no"?>
<!DOCTYPE svg PUBLIC "-//W3C//DTD SVG 1.1//EN" "http://www.w3.org/Graphics/SVG/1.1/DTD/svg11.dtd">
<!-- Created with Vectornator (http://vectornator.io/) -->
<svg height="100%" stroke-miterlimit="10" style="fill-rule:nonzero;clip-rule:evenodd;stroke-linecap:round;stroke-linejoin:round;" version="1.1" viewBox="0 0 500 500" width="100%" xml:space="preserve" xmlns="http://www.w3.org/2000/svg" xmlns:vectornator="http://vectornator.io" xmlns:xlink="http://www.w3.org/1999/xlink">
<defs/>
<g id="Untitled" vectornator:layerName="Untitled">
<g opacity="1" vectornator:layerName="g">
<g opacity="1" vectornator:layerName="path">
<clipPath clip-rule="nonzero" id="ClipPath">
<path d="M0 0L500 0L500 500L0 500L0 0Z"/>
</clipPath>
<g clip-path="url(#ClipPath)">
<path d="M250 103.616C169.284 103.616 103.616 169.284 103.616 250C103.616 273.461 109.303 296.793 120.062 317.473C123.34 323.773 131.104 326.22 137.399 322.945C143.697 319.667 146.147 311.905 142.871 305.607C133.883 288.333 129.326 269.624 129.326 250C129.326 183.46 183.46 129.326 250 129.326C316.54 129.326 370.674 183.46 370.674 250C370.674 316.54 316.54 370.674 250 370.674C229.182 370.674 209.006 365.398 191.069 355.336L250.342 208.539L288.335 301.125C272.786 294.282 257.305 282.832 250.822 277.322L250.822 277.323C245.419 272.723 237.312 273.371 232.707 278.771C228.1 284.174 228.746 292.288 234.149 296.894C238.405 300.522 276.679 332.338 309.764 332.338C314.049 332.338 318.054 330.202 320.44 326.642C322.828 323.083 323.283 318.568 321.657 314.603L262.138 169.563C262.128 169.539 262.115 169.517 262.105 169.493C262.002 169.245 261.881 169.005 261.762 168.764C261.692 168.621 261.63 168.472 261.555 168.333C261.445 168.129 261.318 167.935 261.197 167.738C260.732 166.977 260.199 166.277 259.604 165.645C259.505 165.54 259.415 165.429 259.313 165.327C259.158 165.172 258.99 165.034 258.828 164.889C258.627 164.708 258.425 164.529 258.211 164.361C257.94 164.147 257.665 163.937 257.378 163.746C257.253 163.663 257.118 163.593 256.99 163.514C256.758 163.371 256.527 163.225 256.286 163.096C256.165 163.033 256.036 162.98 255.913 162.919C255.651 162.791 255.39 162.663 255.121 162.552C255.099 162.543 255.08 162.532 255.058 162.523C254.933 162.473 254.806 162.438 254.681 162.392C254.43 162.3 254.179 162.206 253.923 162.13C253.74 162.075 253.556 162.034 253.373 161.988C253.151 161.932 252.929 161.874 252.704 161.83C252.501 161.79 252.299 161.763 252.095 161.733C251.885 161.703 251.675 161.67 251.462 161.649C251.255 161.63 251.049 161.622 250.842 161.612C250.63 161.602 250.419 161.591 250.205 161.591C250.001 161.592 249.799 161.604 249.595 161.615C249.38 161.626 249.165 161.635 248.949 161.657C248.745 161.678 248.544 161.711 248.342 161.741C248.131 161.773 247.92 161.802 247.71 161.845C247.493 161.889 247.28 161.946 247.067 162.001C246.875 162.05 246.684 162.094 246.494 162.152C246.245 162.228 246.002 162.32 245.759 162.411C245.628 162.46 245.495 162.497 245.365 162.55C245.343 162.559 245.322 162.572 245.3 162.581C245.035 162.692 244.778 162.82 244.521 162.948C244.395 163.01 244.263 163.065 244.141 163.131C243.898 163.262 243.666 163.41 243.432 163.556C243.307 163.635 243.175 163.704 243.053 163.786C242.71 164.017 242.378 164.265 242.057 164.529C241.93 164.634 241.817 164.75 241.695 164.859C241.502 165.031 241.306 165.197 241.124 165.381C241.071 165.434 241.026 165.492 240.975 165.545C240.293 166.255 239.692 167.055 239.179 167.929C239.088 168.084 238.989 168.233 238.905 168.391C238.819 168.552 238.748 168.723 238.668 168.889C238.563 169.109 238.453 169.327 238.361 169.553C238.35 169.579 238.336 169.603 238.325 169.629L163.243 355.581C162.433 357.512 162.096 359.636 162.298 361.771C162.66 365.586 164.705 369.041 167.877 371.194C192.152 387.673 220.55 396.384 250 396.384C330.716 396.384 396.384 330.717 396.384 250C396.384 169.284 330.716 103.616 250 103.616" fill="#ffffff" fill-rule="nonzero" opacity="1" stroke="none" vectornator:layerName="path"/>
<path d="M250 103.616C169.284 103.616 103.616 169.284 103.616 250C103.616 273.461 109.303 296.793 120.062 317.473C123.34 323.773 131.104 326.22 137.399 322.945C143.697 319.667 146.147 311.905 142.871 305.607C133.883 288.333 129.326 269.624 129.326 250C129.326 183.46 183.46 129.326 250 129.326C316.54 129.326 370.674 183.46 370.674 250C370.674 316.54 316.54 370.674 250 370.674C229.182 370.674 209.006 365.398 191.069 355.336L250.342 208.539L288.335 301.125C272.786 294.282 257.305 282.832 250.822 277.322L250.822 277.323C245.419 272.723 237.312 273.371 232.707 278.771C228.1 284.174 228.746 292.288 234.149 296.894C238.405 300.522 276.679 332.338 309.764 332.338C314.049 332.338 318.054 330.202 320.44 326.642C322.828 323.083 323.283 318.568 321.657 314.603L262.138 169.563C262.128 169.539 262.115 169.517 262.105 169.493C262.002 169.245 261.881 169.005 261.762 168.764C261.692 168.621 261.63 168.472 261.555 168.333C261.445 168.129 261.318 167.935 261.197 167.738C260.732 166.977 260.199 166.277 259.604 165.645C259.505 165.54 259.415 165.429 259.313 165.327C259.158 165.172 258.99 165.034 258.828 164.889C258.627 164.708 258.425 164.529 258.211 164.361C257.94 164.147 257.665 163.937 257.378 163.746C257.253 163.663 257.118 163.593 256.99 163.514C256.758 163.371 256.527 163.225 256.286 163.096C256.165 163.033 256.036 162.98 255.913 162.919C255.651 162.791 255.39 162.663 255.121 162.552C255.099 162.543 255.08 162.532 255.058 162.523C254.933 162.473 254.806 162.438 254.681 162.392C254.43 162.3 254.179 162.206 253.923 162.13C253.74 162.075 253.556 162.034 253.373 161.988C253.151 161.932 252.929 161.874 252.704 161.83C252.501 161.79 252.299 161.763 252.095 161.733C251.885 161.703 251.675 161.67 251.462 161.649C251.255 161.63 251.049 161.622 250.842 161.612C250.63 161.602 250.419 161.591 250.205 161.591C250.001 161.592 249.799 161.604 249.595 161.615C249.38 161.626 249.165 161.635 248.949 161.657C248.745 161.678 248.544 161.711 248.342 161.741C248.131 161.773 247.92 161.802 247.71 161.845C247.493 161.889 247.28 161.946 247.067 162.001C246.875 162.05 246.684 162.094 246.494 162.152C246.245 162.228 246.002 162.32 245.759 162.411C245.628 162.46 245.495 162.497 245.365 162.55C245.343 162.559 245.322 162.572 245.3 162.581C245.035 162.692 244.778 162.82 244.521 162.948C244.395 163.01 244.263 163.065 244.141 163.131C243.898 163.262 243.666 163.41 243.432 163.556C243.307 163.635 243.175 163.704 243.053 163.786C242.71 164.017 242.378 164.265 242.057 164.529C241.93 164.634 241.817 164.75 241.695 164.859C241.502 165.031 241.306 165.197 241.124 165.381C241.071 165.434 241.026 165.492 240.975 165.545C240.293 166.255 239.692 167.055 239.179 167.929C239.088 168.084 238.989 168.233 238.905 168.391C238.819 168.552 238.748 168.723 238.668 168.889C238.563 169.109 238.453 169.327 238.361 169.553C238.35 169.579 238.336 169.603 238.325 169.629L163.243 355.581C162.433 357.512 162.096 359.636 162.298 361.771C162.66 365.586 164.705 369.041 167.877 371.194C192.152 387.673 220.55 396.384 250 396.384C330.716 396.384 396.384 330.717 396.384 250C396.384 169.284 330.716 103.616 250 103.616Z" fill="none" opacity="0" stroke="#3e4761" stroke-linecap="round" stroke-linejoin="round" stroke-width="1.2" vectornator:layerName="path"/>
<path d="M250 285.678C253.231 288.216 257.371 291.263 262.067 294.396" fill="none" opacity="0" stroke="#3e4761" stroke-linecap="round" stroke-linejoin="round" stroke-width="1.2" vectornator:layerName="path"/>
<path d="M300.716 324.497C288.302 322.308 275.002 316.112 263.349 309.134" fill="none" opacity="0" stroke="#3e4761" stroke-linecap="round" stroke-linejoin="round" stroke-width="1.2" vectornator:layerName="path"/>
<path d="M258.548 179.251L274.758 218.754" fill="none" opacity="0" stroke="#3e4761" stroke-linecap="round" stroke-linejoin="round" stroke-width="1.2" vectornator:layerName="path"/>
<path d="M183.342 324.497L204.286 272.628" fill="none" opacity="0" stroke="#3e4761" stroke-linecap="round" stroke-linejoin="round" stroke-width="1.2" vectornator:layerName="path"/>
<path d="M352.561 344.293C333.975 364.493 309.513 379.207 281.916 385.697" fill="none" opacity="0" stroke="#3e4761" stroke-linecap="round" stroke-linejoin="round" stroke-width="1.2" vectornator:layerName="path"/>
<path d="M311.336 124.85C328.526 133.309 343.731 145.208 356.048 159.642" fill="none" opacity="0" stroke="#3e4761" stroke-linecap="round" stroke-linejoin="round" stroke-width="1.2" vectornator:layerName="path"/>
<path d="M127.112 184.267C142.859 154.946 168.795 131.877 200.151 119.828" fill="none" opacity="0" stroke="#3e4761" stroke-linecap="round" stroke-linejoin="round" stroke-width="1.2" vectornator:layerName="path"/>
<path d="M116.478 290.038C112.614 277.098 110.616 263.572 110.616 250.001" fill="none" opacity="0" stroke="#3e4761" stroke-linecap="round" stroke-linejoin="round" stroke-width="1.2" vectornator:layerName="path"/>
<path d="M124.302 272.629C126.107 282.777 129.144 292.623 133.397 302.096" fill="none" opacity="0" stroke="#3e4761" stroke-linecap="round" stroke-linejoin="round" stroke-width="1.2" vectornator:layerName="path"/>
<path d="M224.685 124.847C198.665 130.102 175.486 143.293 157.794 161.777" fill="none" opacity="0" stroke="#3e4761" stroke-linecap="round" stroke-linejoin="round" stroke-width="1.2" vectornator:layerName="path"/>
<path d="M375.928 228.889C368.991 187.371 341.948 152.573 305.183 134.878" fill="none" opacity="0" stroke="#3e4761" stroke-linecap="round" stroke-linejoin="round" stroke-width="1.2" vectornator:layerName="path"/>
<path d="M206.831 370.179C220.605 375.113 235.234 377.674 250 377.674" fill="none" opacity="0" stroke="#3e4761" stroke-linecap="round" stroke-linejoin="round" stroke-width="1.2" vectornator:layerName="path"/>
<path d="M239.719 216.151L225.285 251.899" fill="none" opacity="0" stroke="#3e4761" stroke-linecap="round" stroke-linejoin="round" stroke-width="1.2" vectornator:layerName="path"/>
<path d="M288.91 284.089L274.921 250" fill="none" opacity="0" stroke="#3e4761" stroke-linecap="round" stroke-linejoin="round" stroke-width="1.2" vectornator:layerName="path"/>
</g>
</g>
</g>
</g>
</svg>
